<?xml version="1.0" encoding="utf-8"?>
<!-- Generator: Adobe Illustrator 27.9.6, SVG Export Plug-In . SVG Version: 9.03 Build 54986)  -->
<svg version="1.1" id="レイヤー_1" xmlns="http://www.w3.org/2000/svg" xmlns:xlink="http://www.w3.org/1999/xlink" x="0px"
	 y="0px" viewBox="0 0 317 129" style="enable-background:new 0 0 317 129;" xml:space="preserve">
<style type="text/css">
	.st0{fill:#3480E9;stroke:#000000;stroke-width:6;}
	.st1{fill:#15C6E5;stroke:#000000;stroke-width:6;}
	.st2{fill:#FFFFFF;}
</style>
<circle class="st0" cx="64.5" cy="64.5" r="61.5"/>
<circle class="st1" cx="251.5" cy="64.8" r="61.5"/>
<path d="M154.4,87.1c-2.9,0-5.4-0.5-7.6-1.6c-2.1-1.1-3.7-2.5-4.9-4.3c-1.1-1.8-1.7-3.9-1.7-6.3c0-1.8,0.4-3.4,1.1-4.7
	c0.7-1.4,1.8-2.7,3.1-3.9c1.3-1.2,2.8-2.4,4.6-3.6l7-5c1.2-0.8,2.1-1.6,2.8-2.5s1-2,1-3.3c0-1-0.4-2-1.3-2.9
	c-0.9-0.9-2.1-1.4-3.5-1.4c-1,0-1.9,0.2-2.7,0.7s-1.4,1.1-1.8,1.9c-0.4,0.8-0.6,1.6-0.6,2.4c0,1,0.3,2,0.8,3c0.6,1,1.3,2.1,2.1,3.1
	c0.9,1.1,1.8,2.2,2.7,3.3l20.3,24.2h-7.2l-16.8-19.7c-1.4-1.7-2.7-3.2-3.9-4.7s-2.2-3-2.9-4.5s-1.1-3.2-1.1-4.9c0-2,0.5-3.8,1.4-5.3
	c0.9-1.6,2.2-2.8,3.9-3.7c1.6-0.9,3.6-1.3,5.8-1.3s4.2,0.4,5.8,1.3c1.6,0.9,2.9,2,3.7,3.5c0.9,1.4,1.3,3,1.3,4.7
	c0,2.1-0.5,3.9-1.6,5.5c-1,1.6-2.4,3-4.2,4.3l-8.8,6.5c-1.7,1.2-2.9,2.5-3.6,3.7c-0.7,1.2-1,2.2-1,2.8c0,1.2,0.3,2.4,1,3.5
	s1.6,1.9,2.7,2.6c1.2,0.6,2.6,1,4.1,1c1.6,0,3.2-0.3,4.7-1s2.9-1.7,4.2-3s2.3-2.9,3-4.8c0.7-1.8,1.1-3.9,1.1-6.2h5.8
	c0,2.8-0.3,5.2-1,7.1c-0.6,1.9-1.4,3.5-2.3,4.7c-0.9,1.2-1.7,2.2-2.5,2.8c-0.3,0.2-0.5,0.5-0.7,0.7s-0.5,0.5-0.7,0.7
	c-1.5,1.5-3.3,2.6-5.4,3.3C158.5,86.8,156.4,87.1,154.4,87.1z"/>
<path class="st2" d="M61.6,72.8h8.6l6.1,7.9l2.9,3.5l9.7,12.6h-9l-6.5-8.4l-2.2-3.1L61.6,72.8z M90.7,62.6c0,6.2-1.1,11.6-3.4,16
	C85,83,81.9,86.5,78,88.9s-8.4,3.6-13.4,3.6s-9.5-1.2-13.5-3.6c-3.9-2.4-7-5.8-9.3-10.3s-3.4-9.8-3.4-16s1.1-11.5,3.4-16
	c2.3-4.5,5.4-7.9,9.3-10.3c4-2.4,8.5-3.6,13.5-3.6s9.5,1.2,13.4,3.6c4,2.4,7.1,5.8,9.3,10.3C89.6,51,90.7,56.3,90.7,62.6z M82,62.6
	c0-4.7-0.8-8.7-2.3-12s-3.6-5.7-6.2-7.4s-5.6-2.5-8.9-2.5c-3.4,0-6.3,0.8-9,2.5c-2.6,1.7-4.7,4.1-6.2,7.4c-1.5,3.2-2.3,7.2-2.3,12
	c0,4.7,0.8,8.7,2.3,12c1.5,3.2,3.6,5.7,6.2,7.4c2.6,1.7,5.6,2.5,9,2.5c3.3,0,6.3-0.8,8.9-2.5c2.7-1.7,4.7-4.1,6.2-7.4
	C81.2,71.3,82,67.3,82,62.6z"/>
<path class="st2" d="M234.6,93.9h-9.3l20.9-58.2h10.1l20.9,58.2H268l-16.4-47.6h-0.5L234.6,93.9z M236.2,71.1h30.2v7.4h-30.2V71.1z"
	/>
</svg>
